
<svg width="111px" height="25px" viewBox="0 0 111 25" version="1.1" xmlns="http://www.w3.org/2000/svg" xmlns:xlink="http://www.w3.org/1999/xlink">
    <!-- Generator: Sketch 47.1 (45422) - http://www.bohemiancoding.com/sketch -->
    <desc>Created with Sketch.</desc>
    <defs>
        <radialGradient cx="9.62205657%" cy="22.8131686%" fx="9.62205657%" fy="22.8131686%" r="98.7377282%" gradientTransform="translate(0.096221,0.228132),scale(1.000000,0.969110),translate(-0.096221,-0.228132)" id="radialGradient-1">
            <stop stop-color="#58595B" offset="0%"></stop>
            <stop stop-color="#FFFFFF" offset="79%"></stop>
            <stop stop-color="#231F20" offset="100%"></stop>
        </radialGradient>
        <radialGradient cx="73.9900657%" cy="94.61101%" fx="73.9900657%" fy="94.61101%" r="100.930755%" gradientTransform="translate(0.739901,0.946110),scale(1.000000,0.969110),translate(-0.739901,-0.946110)" id="radialGradient-2">
            <stop stop-color="#58595B" offset="0%"></stop>
            <stop stop-color="#FFFFFF" offset="79%"></stop>
            <stop stop-color="#231F20" offset="98%"></stop>
        </radialGradient>
        <radialGradient cx="31.7373624%" cy="4.96119889%" fx="31.7373624%" fy="4.96119889%" r="98.9000234%" gradientTransform="translate(0.317374,0.049612),scale(1.000000,0.969110),translate(-0.317374,-0.049612)" id="radialGradient-3">
            <stop stop-color="#808285" offset="0%"></stop>
            <stop stop-color="#FFFFFF" offset="79%"></stop>
            <stop stop-color="#231F20" offset="100%"></stop>
        </radialGradient>
        <radialGradient cx="50.4599627%" cy="43.2871847%" fx="50.4599627%" fy="43.2871847%" r="53.2607718%" gradientTransform="translate(0.504600,0.432872),scale(1.000000,0.969110),translate(-0.504600,-0.432872)" id="radialGradient-4">
            <stop stop-color="#BFD730" offset="0%"></stop>
            <stop stop-color="#50B848" offset="79%"></stop>
            <stop stop-color="#21803F" offset="100%"></stop>
        </radialGradient>
    </defs>
    <g id="Symbols" stroke="none" stroke-width="1" fill="none" fill-rule="evenodd">
        <g id="Quorum-Logo">
            <g id="Group-10-Copy-2">
                <g id="Quorum-Logo">
                    <g id="Asset-1">
                        <g id="Group" transform="translate(21.594306, 4.687500)" fill-rule="nonzero">
                            <path d="M15.5795018,9.22894022 C15.5791382,4.14619465 19.5719456,0.0255111085 24.4976868,0.0251359197 C29.423428,0.0247607309 33.416825,4.14483597 33.4171886,9.22758154 C33.4175522,14.3103271 29.4247447,18.4310107 24.4990036,18.4313859 C22.1335257,18.4317463 19.8648121,17.4623648 18.1920432,15.7365324 C16.5192743,14.0107 15.5795018,11.669816 15.5795018,9.22894022 L15.5795018,9.22894022 Z" id="Shape" fill="url(#radialGradient-1)"></path>
                            <path d="M16.7652135,9.22894022 C16.7641483,6.00130014 18.6475187,3.09085042 21.5370266,1.8548609 C24.4265345,0.618871381 27.7530725,1.30077835 29.9653305,3.5825788 C32.1775885,5.86437924 32.8398477,9.29665753 31.6432678,12.2787923 C30.4466878,15.2609272 27.626943,17.2055674 24.4990036,17.2058424 C20.2293353,17.2050932 16.7677573,13.6347003 16.7652135,9.22894022 Z M24.4990036,16.6766304 C28.4854703,16.67588 31.7165845,13.3406612 31.7159785,9.22712877 C31.7153726,5.11359635 28.4832758,1.77939128 24.4968091,1.77989148 C20.5103423,1.78039169 17.2790315,5.11540777 17.279395,9.22894022 C17.2795696,11.2044884 18.0403239,13.0990417 19.394282,14.4957741 C20.7482402,15.8925065 22.5844795,16.6769908 24.4990036,16.6766304 L24.4990036,16.6766304 Z" id="Shape" fill="url(#radialGradient-2)"></path>
                            <path d="M15.7605516,9.22894022 C15.7616424,4.24926309 19.6744634,0.213244363 24.50032,0.213994668 C29.3261766,0.214744972 33.2378188,4.25198021 33.2374553,9.23165746 C33.2370918,14.2113347 29.3248602,18.2479618 24.4990036,18.247962 C22.1811333,18.2477818 19.958276,17.2974433 18.3194794,15.6060291 C16.6806829,13.9146148 15.7602024,11.6206909 15.7605516,9.22894022 L15.7605516,9.22894022 Z M24.4990036,17.2058424 C28.7690812,17.2047168 32.2298127,13.6319534 32.2288431,9.2257702 C32.2278735,4.81958699 28.76557,1.24844571 24.4954923,1.24932107 C20.2254147,1.25019643 16.7644865,4.82275696 16.7652135,9.22894022 C16.7650386,11.3451902 17.5798952,13.3747662 19.0303948,14.8708623 C20.4808944,16.3669584 22.4481242,17.2069239 24.4990036,17.2058424 L24.4990036,17.2058424 Z" id="Shape" fill="url(#radialGradient-3)"></path>
                            <path d="M14.4141993,12.0923913 C14.4141993,13.8158967 14.4569929,15.2669837 14.5083452,16.4660326 C14.5160856,16.6387765 14.4549421,16.8072574 14.3391447,16.9322646 C14.2233473,17.0572717 14.0629959,17.1279019 13.8954093,17.1277174 L10.9900534,17.1277174 C10.6756554,17.1277026 10.4121352,16.8824762 10.3797509,16.5597826 L10.2151601,14.9144022 L10.1249644,14.9144022 C9.53243772,15.8777174 8.1044484,17.4809783 5.36829181,17.4809783 C2.25884342,17.4809783 0.0197508897,15.4911685 0.0197508897,10.6494565 L0.0197508897,2.07472826 C0.0197508897,1.72504797 0.294466418,1.44157609 0.633345196,1.44157609 L4.13451957,1.44157609 C4.47339835,1.44157609 4.74811388,1.72504797 4.74811388,2.07472826 L4.74811388,9.87975543 C4.74811388,12.15625 5.46243772,13.5346467 7.13994662,13.5346467 C8.44548043,13.5346467 9.22300712,12.6039402 9.50346975,11.8362772 C9.63519339,11.5001656 9.69817731,11.1395901 9.68846975,10.7771739 L9.68846975,2.07472826 C9.68846975,1.72504797 9.96318528,1.44157609 10.3020641,1.44157609 L13.8019217,1.44157609 C13.964657,1.44157609 14.1207271,1.508283 14.2357984,1.62702207 C14.3508697,1.74576113 14.415516,1.90680586 14.415516,2.07472826 L14.4141993,12.0923913 Z" id="Shape" fill="#231F20"></path>
                            <path d="M34.5851246,6.60394022 C34.5851246,4.66711957 34.5640569,3.29415761 34.5021708,2.10597826 C34.4931108,1.93273662 34.5536397,1.76329927 34.6695012,1.63757422 C34.7853627,1.51184917 34.946315,1.44095011 35.1144484,1.44157609 L37.9289502,1.44157609 C38.2520007,1.44155301 38.5197373,1.6999996 38.5412278,2.0326087 L38.6880427,4.32880435 L38.8131317,4.32880435 C39.5906584,2.01902174 41.4268327,1.05638587 42.9173665,1.05638587 C43.2516167,1.05297303 43.5852818,1.08599125 43.9128114,1.1548913 L43.9128114,5.01494565 C43.9142693,5.19191477 43.8431072,5.36126117 43.7169186,5.48111724 C43.5907299,5.60097331 43.4212932,5.66015172 43.2504982,5.64402174 C43.0668149,5.62567935 42.867331,5.61345109 42.638879,5.61345109 C40.8975089,5.61345109 39.7170641,6.5767663 39.405,8.08220109 C39.3413073,8.44073517 39.3104477,8.80465776 39.3128292,9.16915761 L39.3128292,16.4938859 C39.3128292,16.6618083 39.2481828,16.822853 39.1331116,16.9415921 C39.0180403,17.0603311 38.8619702,17.127038 38.6992349,17.127038 L35.1987189,17.127038 C34.8598401,17.127038 34.5851246,16.8435662 34.5851246,16.4938859 L34.5851246,6.60394022 Z" id="Shape" fill="#231F20"></path>
                            <path d="M59.9821352,12.0923913 C59.9821352,13.8158967 60.0262456,15.2669837 60.0775979,16.4660326 C60.0853383,16.6387765 60.0241948,16.8072574 59.9083974,16.9322646 C59.7926,17.0572717 59.6322486,17.1279019 59.4646619,17.1277174 L56.5579893,17.1277174 C56.2431365,17.1276311 55.9794424,16.8816558 55.9476868,16.5584239 L55.7863879,14.9144022 L55.6935587,14.9144022 C55.101032,15.8777174 53.6743594,17.4809783 50.9355694,17.4809783 C47.8287544,17.4809783 45.5890036,15.4911685 45.5890036,10.6494565 L45.5890036,2.07472826 C45.5890036,1.72504797 45.8637191,1.44157609 46.2025979,1.44157609 L49.7017972,1.44157609 C50.0406759,1.44157609 50.3153915,1.72504797 50.3153915,2.07472826 L50.3153915,9.87975543 C50.3153915,12.15625 51.0330071,13.5346467 52.7078826,13.5346467 C54.0140747,13.5346467 54.7916014,12.6039402 55.0707473,11.8362772 C55.2033262,11.5003855 55.2667746,11.1397182 55.2570641,10.7771739 L55.2570641,2.07472826 C55.2570641,1.72504797 55.5317796,1.44157609 55.8706584,1.44157609 L59.3685409,1.44157609 C59.7074197,1.44157609 59.9821352,1.72504797 59.9821352,2.07472826 L59.9821352,12.0923913 Z" id="Shape" fill="#231F20"></path>
                            <path d="M62.2218861,6.44633152 C62.2218861,4.78600543 62.1758007,3.3580163 62.1244484,2.09850543 C62.117258,1.92616859 62.1786682,1.75829167 62.2944245,1.63384208 C62.4101809,1.50939248 62.5702165,1.43919292 62.7373843,1.43953804 L65.5446441,1.43953804 C65.8618105,1.43957872 66.1266789,1.6890338 66.155605,2.01494565 L66.2918861,3.55638587 L66.3886655,3.55638587 C67.0417616,2.53125 68.4078648,1.05502717 70.9840391,1.05502717 C72.9775623,1.05502717 74.4996975,2.11413043 75.153452,3.75067935 L75.2153381,3.75067935 C75.8078648,2.91644022 76.4596441,2.27241848 77.204911,1.82472826 C78.0865412,1.31193263 79.083116,1.04676617 80.0951246,1.05570652 C83.0169395,1.05570652 85.2244306,3.17255435 85.2244306,7.88858696 L85.2244306,16.4938859 C85.2244306,16.8435662 84.9497151,17.127038 84.6108363,17.127038 L81.2340925,17.127038 C80.8952137,17.127038 80.6204982,16.8435662 80.6204982,16.4938859 L80.6204982,8.59375 C80.6204982,6.31861413 79.9101246,5.00203804 78.3820641,5.00203804 C77.262847,5.00203804 76.5188968,5.77105978 76.1772064,6.70040761 C76.0767751,7.10953473 76.0248236,7.52972495 76.0224911,7.9517663 L76.0224911,16.4938859 C76.0224911,16.8435662 75.7477756,17.127038 75.4088968,17.127038 L72.0334698,17.127038 C71.694591,17.127038 71.4198754,16.8435662 71.4198754,16.4938859 L71.4198754,8.30706522 C71.4198754,6.34986413 70.7351779,5.00203804 69.2143594,5.00203804 C68.0023132,5.00203804 67.2846975,5.96535326 67.0055516,6.734375 C66.8501779,7.12092391 66.8205516,7.56861413 66.8205516,7.984375 L66.8205516,16.4938859 C66.8205516,16.8435662 66.5458361,17.127038 66.2069573,17.127038 L62.8335053,17.127038 C62.4946266,17.127038 62.219911,16.8435662 62.219911,16.4938859 L62.2218861,6.44633152 Z" id="Shape" fill="#231F20"></path>
                            <path d="M31.7265125,9.22894022 C31.7243311,13.3477461 28.4870713,16.6850488 24.4954937,16.6834233 C20.5039161,16.6817978 17.2692101,13.3418596 17.2701792,9.22305324 C17.2711483,5.10424685 20.5074257,1.76592981 24.4990036,1.76630435 C26.4165496,1.76666456 28.2553904,2.55317177 29.6108681,3.95274612 C30.9663457,5.35232047 31.7273857,7.25027393 31.7265125,9.22894022 Z" id="Shape" fill="url(#radialGradient-4)"></path>
                        </g>
                        <path d="M108.835961,2.41236413 C110.032865,2.41236413 110.963132,3.37092391 110.963132,4.56725543 C110.963132,5.79008152 110.032865,6.7357337 108.822794,6.7357337 C107.624573,6.7357337 106.669947,5.79008152 106.669947,4.56725543 C106.669947,3.37160326 107.625231,2.41236413 108.822794,2.41236413 L108.835961,2.41236413 Z M108.810285,2.8451087 C107.893185,2.8451087 107.205854,3.62092391 107.205854,4.56725543 C107.205854,5.52717391 107.893843,6.28940217 108.836619,6.28940217 C109.753719,6.30230978 110.427883,5.52717391 110.427883,4.56725543 C110.427883,3.62160326 109.75306,2.8451087 108.823452,2.8451087 L108.810285,2.8451087 Z M108.490979,5.68478261 L108.00774,5.68478261 L108.00774,3.54211957 C108.272083,3.48875167 108.540936,3.46280725 108.810285,3.46467391 C109.205302,3.46467391 109.383719,3.5326087 109.534484,3.63519022 C109.666497,3.74875902 109.741741,3.91777498 109.739235,4.0951087 C109.739235,4.3451087 109.56016,4.52853261 109.304715,4.60733696 L109.304715,4.63315217 C109.509466,4.70108696 109.624021,4.87024457 109.687224,5.16032609 C109.75306,5.48845109 109.78927,5.62024457 109.840623,5.68546196 L109.317883,5.68546196 C109.252046,5.60665761 109.216495,5.42255435 109.152633,5.171875 C109.115107,4.9361413 108.987384,4.83220109 108.719431,4.83220109 L108.489662,4.83220109 L108.490979,5.68478261 Z M108.504146,4.47554348 L108.733915,4.47554348 C109.00121,4.47554348 109.217811,4.38383152 109.217811,4.15964674 C109.217811,3.96331522 109.07758,3.83084239 108.7721,3.83084239 C108.682064,3.8291684 108.592144,3.83828743 108.504146,3.8580163 L108.504146,4.47554348 Z" id="Shape" fill="#231F20" fill-rule="nonzero"></path>
                        <path d="M20.5850356,21.8125 C19.6264591,21.1514946 18.6507651,20.439538 17.7481495,19.7269022 C19.2656762,18.0027174 20.1459075,15.2561141 20.1459075,10.9375 C20.1459075,5.00475543 16.6309075,0 10.2605872,0 C3.97782918,0 0,4.84307065 0,11.3552989 C0,18.4456522 3.45838078,22.3607337 10.0729537,22.3607337 C11.7846975,22.3607337 13.3318505,22.1841033 14.6814947,21.7241848 C15.8296797,22.8165761 16.9897153,23.8702446 18.2814235,24.9476902 C18.5342349,25.1589674 19.4197331,24.5713315 20.0148932,23.9578804 C20.6377046,23.314538 20.993879,22.0944293 20.5850356,21.8125 Z M5.00355872,11.2262228 C5.00355872,7.15421196 6.8680427,3.87975543 10.1012633,3.87975543 C13.334484,3.87975543 15.1423488,7.15421196 15.1423488,11.1317935 C15.1423488,15.3634511 13.3061744,18.4748641 10.1045552,18.4748641 C6.90293594,18.4748641 5.00355872,15.3349185 5.00355872,11.2262228 Z" id="Shape" fill="#231F20" fill-rule="nonzero"></path>
                    </g>
                </g>
            </g>
        </g>
    </g>
</svg>